<?xml version="1.0" standalone="no"?><svg xmlns="http://www.w3.org/2000/svg" viewBox="0 0 1440 320"><path fill="#cbf1f5" fill-opacity="0.7" d="M0,288L34.3,288C68.6,288,137,288,206,277.3C274.3,267,343,245,411,208C480,171,549,117,617,133.3C685.7,149,754,235,823,245.3C891.4,256,960,192,1029,160C1097.1,128,1166,128,1234,138.7C1302.9,149,1371,171,1406,181.3L1440,192L1440,320L1405.7,320C1371.4,320,1303,320,1234,320C1165.7,320,1097,320,1029,320C960,320,891,320,823,320C754.3,320,686,320,617,320C548.6,320,480,320,411,320C342.9,320,274,320,206,320C137.1,320,69,320,34,320L0,320Z"></path></svg>