<?xml version="1.0" standalone="no"?><svg xmlns="http://www.w3.org/2000/svg" viewBox="0 0 1440 320"><path fill="#a2d9ff" fill-opacity="0.4" d="M0,192L26.7,197.3C53.3,203,107,213,160,213.3C213.3,213,267,203,320,186.7C373.3,171,427,149,480,122.7C533.3,96,587,64,640,58.7C693.3,53,747,75,800,74.7C853.3,75,907,53,960,53.3C1013.3,53,1067,75,1120,74.7C1173.3,75,1227,53,1280,53.3C1333.3,53,1387,75,1413,85.3L1440,96L1440,0L1413.3,0C1386.7,0,1333,0,1280,0C1226.7,0,1173,0,1120,0C1066.7,0,1013,0,960,0C906.7,0,853,0,800,0C746.7,0,693,0,640,0C586.7,0,533,0,480,0C426.7,0,373,0,320,0C266.7,0,213,0,160,0C106.7,0,53,0,27,0L0,0Z"></path></svg>